<?xml version="1.0" standalone="no"?>
<!DOCTYPE svg PUBLIC "-//W3C//DTD SVG 20010904//EN"
 "http://www.w3.org/TR/2001/REC-SVG-20010904/DTD/svg10.dtd">
<svg version="1.0" xmlns="http://www.w3.org/2000/svg"
 width="50.000000pt" height="49.000000pt" viewBox="0 0 400.000000 399.000000"
 preserveAspectRatio="xMidYMid meet">

<g transform="translate(0.000000,399.000000) scale(0.100000,-0.100000)"
fill="#000000" stroke="none">
<path d="M1415 3965 c-27 -13 -62 -25 -76 -25 -54 0 -197 -32 -304 -67 -465
-152 -832 -516 -990 -983 -52 -152 -53 -161 -12 -196 85 -73 540 -420 560
-428 20 -7 41 6 158 99 124 100 134 106 138 84 9 -63 -9 -840 -23 -1004 -38
-423 -93 -792 -169 -1143 -25 -113 -31 -156 -23 -167 7 -9 67 -24 166 -39 408
-66 715 -90 1155 -90 447 -1 735 20 1135 85 188 30 213 39 204 77 -2 9 -15 65
-29 125 -85 367 -161 933 -185 1362 -14 261 -13 805 1 805 6 0 67 -45 136
-101 97 -77 131 -99 147 -95 12 3 113 78 226 167 113 88 242 188 288 222 50
37 82 68 82 79 0 36 -73 245 -120 343 -147 306 -403 560 -732 726 -152 77
-397 149 -507 149 -23 0 -55 9 -73 20 -44 27 -98 26 -282 -7 -208 -36 -375
-36 -580 0 -186 34 -227 34 -291 2z m309 -71 c139 -22 181 -25 311 -21 85 3
200 14 265 26 129 23 230 27 248 9 22 -22 14 -82 -17 -128 -84 -125 -299 -210
-531 -210 -303 0 -560 133 -560 290 0 26 3 50 7 53 13 14 119 6 277 -19z
m-354 -52 c1 -67 61 -151 152 -213 122 -83 276 -122 478 -122 233 1 407 56
528 167 50 46 92 121 92 165 0 16 4 32 8 35 17 10 232 -35 332 -69 454 -158
787 -498 940 -959 32 -96 32 -100 14 -113 -11 -7 -130 -99 -266 -204 -135
-106 -250 -191 -255 -189 -4 1 -73 53 -151 117 -79 63 -150 117 -156 119 -30
12 -35 -25 -42 -282 -7 -258 5 -634 28 -882 l11 -124 -26 -26 c-25 -24 -27
-25 -45 -9 -37 33 -58 12 -25 -25 15 -17 15 -20 -10 -46 -25 -26 -35 -52 -21
-52 3 0 21 12 40 27 l35 26 33 -32 c58 -56 55 -67 -53 -175 l-97 -96 -59 60
c-57 58 -85 73 -85 48 0 -17 161 -178 177 -178 15 0 17 22 3 36 -7 7 2 21 25
44 l35 34 53 -52 c29 -29 58 -52 64 -52 13 0 13 1 53 -230 17 -96 42 -226 56
-289 19 -84 23 -115 14 -121 -6 -4 -50 -13 -97 -20 l-85 -12 -82 81 -81 81 28
27 27 28 68 -68 c37 -37 73 -67 80 -67 26 0 10 27 -55 92 l-67 68 48 49 c56
57 47 78 -14 30 -22 -18 -40 -36 -40 -41 0 -17 -25 -7 -57 24 l-33 32 52 53
c29 29 57 53 63 53 6 0 40 -29 75 -65 58 -58 90 -79 90 -58 0 4 -32 40 -72 80
l-72 73 32 33 c56 58 33 81 -25 25 l-33 -32 -30 29 c-20 19 -33 26 -40 19 -7
-7 -2 -18 15 -34 14 -13 25 -28 25 -35 0 -6 -24 -34 -53 -63 -48 -47 -55 -51
-67 -37 -11 13 -10 20 8 45 25 34 27 40 10 40 -7 0 -41 -28 -75 -62 l-63 -62
-58 57 c-52 51 -72 61 -72 36 0 -5 23 -31 50 -58 28 -28 50 -54 50 -58 0 -5
-25 -33 -55 -63 l-55 -55 -67 68 -68 67 73 73 c69 70 86 97 59 97 -7 0 -70
-57 -139 -126 -87 -86 -132 -124 -143 -120 -24 9 -18 30 15 54 31 23 40 52 17
52 -7 0 -62 -50 -122 -110 -93 -94 -114 -110 -134 -105 -21 5 -23 3 -17 -18 4
-19 -4 -33 -44 -72 l-50 -49 -38 37 c-65 64 -89 40 -25 -25 l37 -38 -30 -31
-29 -31 -154 6 c-183 8 -468 31 -636 51 -151 19 -343 50 -350 57 -3 3 10 81
30 174 111 530 170 1066 181 1644 6 353 -3 558 -27 573 -12 8 -47 -16 -167
-113 -83 -67 -157 -120 -165 -117 -7 2 -116 85 -242 183 -127 99 -242 188
-257 199 l-28 20 15 55 c22 82 71 206 114 285 187 347 473 591 841 720 98 34
305 78 323 68 4 -2 7 -16 7 -31z m1720 -2638 c0 -22 -2 -25 -15 -14 -8 7 -15
19 -15 26 0 8 7 14 15 14 10 0 15 -10 15 -26z m35 -279 l7 -70 -48 47 -48 48
34 35 c41 42 45 37 55 -60z m-251 -474 l58 -59 -17 -26 c-10 -14 -23 -26 -29
-26 -6 0 -38 27 -70 59 l-58 59 18 26 c11 14 24 26 29 26 6 0 37 -26 69 -59z
m-374 -66 l64 -65 -39 -40 c-21 -22 -44 -40 -49 -40 -13 0 -126 111 -126 124
0 11 70 86 80 86 3 0 35 -29 70 -65z m347 -84 c-20 -28 -97 -101 -105 -101 -4
0 -34 27 -67 60 l-59 59 20 22 c10 12 37 39 59 60 l40 38 62 -61 c52 -52 60
-64 50 -77z m-561 78 c3 -6 -6 -24 -22 -40 -21 -22 -31 -26 -41 -18 -18 15
-16 26 7 49 22 22 45 26 56 9z m111 -119 l52 -55 -21 -22 c-12 -13 -26 -23
-32 -23 -6 0 -39 28 -73 62 l-63 62 27 28 c31 32 29 33 110 -52z m-198 37 c8
-10 4 -20 -19 -42 -24 -23 -32 -26 -44 -16 -13 11 -13 16 6 42 24 32 40 36 57
16z m453 -64 c32 -32 58 -65 58 -75 0 -11 7 -18 19 -18 11 0 23 -5 26 -10 11
-17 27 1 21 24 -4 16 7 33 46 73 29 29 57 53 63 53 14 0 140 -128 133 -135
-17 -18 -503 -63 -771 -72 l-188 -6 -29 28 c-17 16 -30 32 -30 36 0 17 94 100
107 95 19 -8 16 -30 -7 -51 -11 -10 -20 -24 -20 -32 0 -21 24 -15 50 12 l24
25 37 -36 c52 -51 73 -35 23 17 l-38 39 29 30 29 30 72 -70 c78 -75 104 -85
129 -46 23 34 42 39 65 16 39 -39 57 -14 19 26 l-20 21 43 42 c24 22 45 41 48
41 2 0 30 -26 62 -57z m-662 -148 c11 -13 8 -15 -18 -15 -24 0 -30 4 -26 15 4
8 12 15 19 15 7 0 18 -7 25 -15z"/>
<path d="M1030 3558 c0 -6 9 -21 20 -33 l20 -21 -40 -39 c-37 -37 -40 -38 -58
-22 -20 18 -42 22 -42 8 0 -5 7 -14 15 -21 22 -18 19 -33 -13 -63 -29 -27 -29
-27 -47 -7 -17 19 -45 27 -45 13 0 -4 10 -17 22 -30 l22 -24 -42 -41 -41 -42
-26 24 c-35 33 -54 14 -24 -24 17 -22 19 -29 8 -42 -18 -22 4 -42 26 -24 14
12 22 8 57 -28 l42 -41 -27 -27 c-15 -15 -27 -30 -27 -35 0 -20 19 -16 45 11
l28 29 29 -24 c16 -14 34 -25 39 -25 16 0 10 26 -11 45 -27 25 -25 36 13 73
37 36 49 39 67 17 7 -8 16 -15 21 -15 15 0 10 22 -8 42 -16 18 -15 20 15 50
30 30 32 31 50 15 19 -17 42 -23 42 -10 0 4 -9 16 -20 28 l-20 21 39 38 c32
32 42 36 58 27 14 -7 23 -7 31 1 17 17 15 38 -5 38 -13 0 -11 6 10 28 15 15
27 31 27 35 0 14 -28 6 -45 -13 -21 -24 -38 -25 -54 -6 -9 11 -9 20 -2 35 13
24 -3 39 -24 21 -17 -14 -36 -5 -29 15 9 21 -5 38 -20 26 -10 -8 -18 -5 -31 9
-20 22 -45 27 -45 8z m54 -135 c-22 -21 -42 -32 -52 -28 -12 4 -7 14 23 45 31
31 41 37 52 28 12 -10 8 -18 -23 -45z m80 -16 c9 -13 3 -24 -27 -53 -31 -30
-40 -34 -52 -24 -22 18 -19 30 17 67 34 35 45 37 62 10z m-154 -50 c0 -8 -9
-22 -20 -32 -11 -10 -20 -22 -20 -27 0 -15 23 -8 47 13 18 18 25 20 38 9 8 -7
15 -16 15 -21 0 -13 -42 -59 -54 -59 -6 0 -27 17 -48 37 l-38 37 27 28 c29 30
53 37 53 15z m-55 -107 l38 -39 -42 -42 -42 -43 -42 42 -41 42 39 40 c21 22
42 40 45 40 3 0 23 -18 45 -40z"/>
<path d="M1253 3070 c-67 -15 -103 -56 -103 -116 0 -40 40 -70 132 -98 51 -15
88 -33 92 -42 29 -76 -67 -111 -167 -61 -32 17 -49 21 -57 13 -19 -19 -10 -34
33 -54 126 -60 250 -21 250 78 0 58 -28 84 -120 109 -112 30 -136 59 -88 106
31 32 87 33 134 4 33 -20 36 -20 48 -4 15 22 10 31 -25 49 -36 18 -90 24 -129
16z"/>
<path d="M2285 3073 c-52 -9 -66 -15 -96 -40 -83 -70 -91 -211 -16 -291 112
-120 306 -33 307 136 0 114 -97 211 -195 195z m73 -63 c89 -54 97 -175 17
-250 -21 -20 -37 -25 -75 -25 -38 0 -54 6 -75 25 -77 71 -70 191 14 247 42 28
76 29 119 3z"/>
<path d="M1620 2880 l0 -190 25 0 c25 0 25 1 25 85 l0 85 105 0 105 0 0 -85
c0 -84 0 -85 25 -85 l25 0 0 190 0 190 -25 0 c-25 0 -25 -1 -25 -80 l0 -80
-105 0 -105 0 0 80 c0 79 0 80 -25 80 l-25 0 0 -190z"/>
<path d="M2670 2880 l0 -190 25 0 c24 0 25 2 25 64 l0 63 81 5 c73 4 83 7 111
35 57 58 46 163 -22 198 -20 10 -59 15 -125 15 l-95 0 0 -190z m205 125 c31
-30 32 -73 4 -109 -19 -24 -27 -26 -90 -26 l-69 0 0 73 c0 41 3 77 7 80 3 4
33 7 65 7 49 0 63 -4 83 -25z"/>
<path d="M1440 2371 c0 -4 26 -71 59 -147 70 -167 83 -177 120 -84 13 33 27
60 32 60 4 0 18 -27 31 -60 36 -94 49 -84 124 93 59 140 61 147 40 147 -19 0
-29 -17 -71 -120 -27 -66 -50 -120 -51 -120 -7 0 -44 94 -44 110 0 10 11 43
25 74 24 55 24 56 4 56 -15 0 -25 -11 -36 -40 -9 -22 -19 -40 -23 -40 -4 0
-14 18 -23 40 -11 28 -21 40 -36 40 -19 0 -19 -1 5 -55 13 -31 24 -64 24 -74
0 -21 -38 -116 -44 -110 -2 2 -25 57 -52 122 -36 90 -52 117 -66 117 -10 0
-18 -4 -18 -9z"/>
<path d="M1990 2230 c0 -127 2 -150 15 -150 13 0 15 23 15 150 0 127 -2 150
-15 150 -13 0 -15 -23 -15 -150z"/>
<path d="M2150 2365 c0 -11 12 -15 50 -15 l50 0 0 -135 c0 -128 1 -135 20
-135 18 0 20 8 22 133 l3 132 53 3 c37 2 52 7 52 18 0 11 -23 14 -125 14 -104
0 -125 -2 -125 -15z"/>
<path d="M2520 2230 c0 -142 1 -150 20 -150 17 0 19 8 22 68 l3 67 78 3 77 3
0 -71 c0 -63 2 -70 20 -70 19 0 20 7 20 150 0 143 -1 150 -20 150 -18 0 -20
-7 -20 -65 l0 -65 -80 0 -80 0 0 65 c0 58 -2 65 -20 65 -19 0 -20 -7 -20 -150z"/>
<path d="M1671 1632 c4 -127 14 -155 65 -189 34 -22 114 -22 148 0 46 31 60
72 64 195 4 106 3 112 -16 112 -18 0 -20 -9 -24 -109 -3 -81 -9 -116 -22 -135
-36 -55 -110 -56 -150 -3 -17 24 -21 46 -24 138 -4 101 -6 109 -24 109 -19 0
-20 -6 -17 -118z"/>
<path d="M2139 1721 c-34 -34 -38 -77 -11 -111 10 -13 45 -29 87 -41 77 -21
98 -39 86 -72 -14 -37 -72 -45 -133 -19 -37 16 -55 19 -63 11 -21 -22 69 -69
133 -69 35 0 89 26 101 48 18 34 13 77 -11 99 -13 12 -55 31 -94 42 -78 23
-93 40 -69 77 13 20 24 24 63 24 27 0 57 -7 70 -16 20 -14 23 -14 29 2 11 30
-31 54 -99 54 -52 0 -63 -3 -89 -29z"/>
<path d="M2690 837 c0 -21 127 -140 140 -132 8 5 -10 30 -56 76 -69 70 -84 80
-84 56z"/>
</g>
</svg>
