<?xml version="1.0" standalone="no"?>
<!DOCTYPE svg PUBLIC "-//W3C//DTD SVG 20010904//EN"
 "http://www.w3.org/TR/2001/REC-SVG-20010904/DTD/svg10.dtd">
<svg version="1.0" xmlns="http://www.w3.org/2000/svg"
 width="50.000000pt" height="51.000000pt" viewBox="0 0 123.000000 124.000000"
 preserveAspectRatio="xMidYMid meet">

<g transform="translate(0.000000,124.000000) scale(0.100000,-0.100000)"
fill="#000000" stroke="none">
<path d="M20 615 l0 -595 595 0 595 0 0 595 0 595 -595 0 -595 0 0 -595z m350
15 c0 -203 -1 -210 -20 -210 -19 0 -20 7 -20 210 0 203 1 210 20 210 19 0 20
-7 20 -210z m180 100 c36 -60 67 -109 70 -109 3 0 34 49 70 109 52 88 70 110
88 110 12 0 22 -2 22 -4 0 -2 -36 -62 -80 -132 l-80 -129 0 -77 c0 -71 -2 -78
-20 -78 -18 0 -20 7 -20 76 l0 76 -80 130 c-44 71 -80 132 -80 134 0 2 10 4
23 4 17 -1 35 -23 87 -110z m360 -100 c0 -203 -1 -210 -20 -210 -19 0 -20 7
-20 210 0 203 1 210 20 210 19 0 20 -7 20 -210z"/>
</g>
</svg>
